<?xml version="1.0" encoding="utf-8"?>
<!-- Generator: Adobe Illustrator 24.0.0, SVG Export Plug-In . SVG Version: 6.00 Build 0)  -->
<svg version="1.1" id="Layer_1" xmlns="http://www.w3.org/2000/svg" xmlns:xlink="http://www.w3.org/1999/xlink" x="0px" y="0px"
	 viewBox="0 0 141.7 141.7" style="enable-background:new 0 0 141.7 141.7;" xml:space="preserve">
<style type="text/css">
	.st0{fill:#FFFFFF;}
</style>
<title>Sukanta Pal Logo_SVG</title>
<g>
	<circle cx="70.9" cy="70.9" r="67.1"/>
	<path class="st0" d="M53.1,51.9c0-1.5,0-3.1,0.5-4.7c0.7-2.4,1.8-4.6,3.5-6.5c2.9-3.3,6.5-5.2,10.8-6c2-0.4,4-0.5,6-0.1
		c0.8,0.2,1.6,0.2,2.4,0.4c2.7,0.7,4.9,2.1,6.9,4c2.2,2.1,3.9,4.5,4.8,7.5c0.5,1.4,0.8,2.9,0.8,4.4c0,1.1,0,2.2,0,3.4
		c-0.2,4.1-1.7,7.7-4.5,10.7c-0.7,0.8-1.5,1.5-2.3,2.2c-1.3,1.1-2.8,2-4.5,2.5c-0.1,0-0.2-0.1-0.3-0.2c0,0,0-0.2,0.1-0.2
		c0.5-0.4,0.9-0.8,1.4-1.1c2.1-1.8,3.6-4,4.3-6.7c0.4-1.7,0.4-3.4,0.1-5.1c-0.3-1.5-0.9-3-1.6-4.4c-0.7-1.5-1.8-2.7-3.1-3.7
		c-2.2-1.7-4.8-2.6-7.5-2.6c-4.8-0.1-8.1,2.5-9.2,7c-0.3,1.3-0.1,2.6,0.4,3.7c1.4,3.5,4.6,5,7.7,4.6c4-0.5,5.9-4.4,5.2-7.3
		c-0.2-0.8-0.5-1.6-0.9-2.3c-0.3-0.4-0.5-0.7-0.7-1.1c-0.1-0.2-0.1-0.5,0-0.6c0.1-0.1,0.4-0.2,0.6-0.2c0.1,0,0.2,0,0.2,0
		c2.4,0.7,4,2.2,5.1,4.4c0.9,1.9,1.3,4,1,6.1c-0.6,4.8-4,7.9-8.1,8.8c-0.9,0.2-1.8,0.3-2.7,0.4c-3.1,0.1-6.1-0.3-8.8-2
		c-3.2-2-5.3-4.7-6.6-8.3C53.2,56.4,53,55.1,53.1,51.9z"/>
	<path class="st0" d="M86.5,104.9c-0.1,2.8-0.4,5.6-1.5,8.2c-1.3,3-3.5,5.3-6.6,6.5c-0.2,0.1-0.4,0.1-0.6,0.1
		c-0.1,0-0.2-0.1-0.3-0.2c0,0,0-0.1,0-0.2c0.1-0.1,0.2-0.2,0.3-0.3c1.5-1.1,2.2-2.7,2.7-4.4c0.3-1.1,0.5-2.2,0.4-3.3
		c0-0.6,0-1.3,0-1.9c0.1-3.4-1-6.5-2.8-9.3c-1.5-2.3-3.4-4.3-5.5-6c-1.4-1.2-3-2.3-4.5-3.4c-2.8-2-5.6-4-8.4-6c-1.4-1-2.8-2.1-4-3.4
		c-1.3-1.4-2.3-3-2.7-4.9C53,76.3,53,76.1,53,75.9c-0.1-1.7-0.1-3.4,0-5c0-0.1,0-0.1,0.1-0.2c0.1-0.2,0.5-0.4,0.6-0.3
		c0.3,0.2,0.5,0.4,0.8,0.6c3.4,3.2,7.1,5.9,10.9,8.4c2.4,1.6,4.9,3.2,7.2,4.9c2.8,2,5.5,4.2,7.8,6.7c1.9,2,3.4,4.2,4.6,6.7
		c0.4,0.8,0.7,1.7,0.9,2.6C86.2,101.8,86.5,103.3,86.5,104.9z"/>
</g>
</svg>
