<svg xmlns="http://www.w3.org/2000/svg" width="277.066" height="43.249" viewBox="0 0 277.066 43.249"><defs><style>.a{fill:#f4f7f6;}</style></defs><g transform="translate(-172.765 -144.564)"><path class="a" d="M287.8,187.25c-3.1,0-6.04.313-8.863-.128a7.044,7.044,0,0,1-4.068-2.787c-3.625-5.067-6.949-10.349-10.488-15.48-.509-.738-1.588-1.083-2.4-1.609-.444.89-1.2,1.758-1.271,2.676-.178,2.485.057,5-.089,7.486a10.94,10.94,0,0,0,3.87,9.662H248.987c3.517-2.835,3.912-6.485,3.825-10.432-.149-6.823-.041-13.65-.041-20.476,0-6.052,0-6.052-3.32-10.669h14.721c-6.088,5.988-2.437,13.441-3.726,20.163l.715.323c4.389-4.719,8.852-9.373,13.129-14.191,1.661-1.871,1.3-4.16.044-6.37h10.292c-6.29,3.269-9.973,8.461-14.3,12.985-1.31,1.37-1.427,2.533-.32,4.156,4.543,6.66,8.911,13.439,13.47,20.088A42.039,42.039,0,0,0,287.8,187.25Z"/><path class="a" d="M172.779,172.834a101.922,101.922,0,0,0,6.4,8.207,23.407,23.407,0,0,0,6.288,4.763c3.464,1.745,7.116.336,9.013-2.933a7.049,7.049,0,0,0-1.654-9.382,44.755,44.755,0,0,0-6.247-3.581c-2.867-1.5-5.886-2.737-8.656-4.394-4.228-2.53-5.421-6.519-4.6-11.2.742-4.219,3.166-7.364,7.273-8.324a42.949,42.949,0,0,1,11.326-.925c3.283.128,6.547,1.088,9.781,1.845.687.16,1.685,1,1.724,1.577.184,2.7.081,5.428.081,8.427-2.436-2.642-4.463-5.143-6.8-7.308-3.4-3.144-7.375-5.215-12-2.961a11.8,11.8,0,0,0-4.742,4.448c-1.311,2.251-.2,5.118,2.387,6.656,2.693,1.6,5.684,2.7,8.508,4.088a76.467,76.467,0,0,1,8.8,4.589c3.908,2.609,5.125,6.684,4.464,11.17-.659,4.471-3.637,7.146-7.77,8.6-8.131,2.851-15.553.768-22.628-3.4a2.193,2.193,0,0,1-.9-1.562C172.729,178.519,172.779,175.8,172.779,172.834Z"/><path class="a" d="M334.37,145.349c3.59,0,6.738-.088,9.874.065a3.544,3.544,0,0,1,2.109,1.39c6.044,7.412,12.033,14.869,18.039,22.312.724.9,1.467,1.782,2.555,3.1.073-1.255.154-2.021.156-2.787.011-5.075.03-10.151,0-15.226a9.957,9.957,0,0,0-4.745-8.7H372.83c-4.908,3.184-4.784,7.908-4.737,12.693.087,8.735.025,17.472.025,26.209V187.1l-.673.391c-4.738-5.181-8.78-10.957-13.18-16.421-4.43-5.5-8.738-11.1-13.465-17.124-.094,1.2-.192,1.879-.193,2.555-.012,6.656.135,13.317-.058,19.967-.124,4.271.791,7.89,4.979,10.641H334.916c.438-.458.765-.859,1.15-1.193a8.717,8.717,0,0,0,3.226-6.972c-.056-8.32.005-16.641-.031-24.961C339.247,150.949,338.626,149.941,334.37,145.349Z"/><path class="a" d="M386.035,187.125c3.523-2.888,4.207-6.289,4.151-10.134-.133-9.145-.043-18.294-.043-27.441v-2.644c-5.992-1.222-8.216.38-13.5,9.034.5-3.469.995-6.937,1.521-10.6h18.863c3.492,0,6.988.1,10.476-.036,2.072-.078,3.161.254,3.166,2.748.005,2.572.664,5.143.755,7.858-2.924-5.189-5.519-10.6-13.335-9.11v2.572c0,8.482.093,16.965-.038,25.445-.07,4.5.174,8.788,4.244,12.3Z"/><path class="a" d="M209.025,145.392h15.853c-5.157,4.228-4.152,9.723-4.127,14.938.029,5.894.1,11.795.432,17.678.216,3.783,1.773,6.946,5.892,8a10.314,10.314,0,0,0,10.649-4.372,13.053,13.053,0,0,0,1.972-6c.255-6.73.06-13.476.159-20.214.053-3.665-.216-7.141-3.8-9.925h9.126c-3.984,3.226-4.055,7.411-3.994,11.694.08,5.574-.131,11.154.035,16.724.328,11.041-7.86,15.006-16.82,13.64-6.367-.972-11.532-5.366-11.227-13.482.219-5.816-.021-11.648.064-17.472C213.3,152.507,212.852,148.648,209.025,145.392Z"/><path class="a" d="M330.094,187.165H315.287a9.106,9.106,0,0,0-.081-12.379,3.666,3.666,0,0,0-2.38-1.023,82.864,82.864,0,0,0-9.47.045,5.074,5.074,0,0,0-2.815,1.912,10.922,10.922,0,0,0-1.375,2.9c-1.7,3.953-1.382,5.322,2.147,8.437H291.278c4.818-2.1,5.825-6.417,7.463-10.321q6.291-15,12.579-30c.253-.6.565-1.183,1.017-2.121.366.872.628,1.46.862,2.058,4.466,11.4,8.882,22.824,13.432,34.192A57.333,57.333,0,0,0,330.094,187.165Zm-28.074-14.9h12.513c-1.958-5.042-3.844-9.9-5.943-15.308Z"/><path class="a" d="M410.841,187.147c3.17-1.812,4.535-4.844,5.848-8.043,4.428-10.8,8.988-21.541,13.507-32.3.283-.674.65-1.313,1.113-2.24,4.308,11.037,8.479,21.813,12.728,32.559,1.381,3.492,2.133,7.352,5.794,10.02H434.07c1.464-1.8,3.853-3.07,2.666-5.9-.863-2.053-1.458-4.234-2.474-6.2a3.324,3.324,0,0,0-2.465-1.267c-3.153-.149-6.319-.113-9.476-.022a3.539,3.539,0,0,0-2.223.838,8.742,8.742,0,0,0-.039,12.554Zm10.138-15.021H433.42l-5.941-15.135C425.154,162.4,423.105,167.174,420.979,172.126Z"/></g></svg>